<?xml version="1.0" encoding="UTF-8"?>
<svg width="26px" height="28px" viewBox="0 0 26 28" version="1.1" xmlns="http://www.w3.org/2000/svg" xmlns:xlink="http://www.w3.org/1999/xlink">
    <!-- Generator: Sketch 51.1 (57501) - http://www.bohemiancoding.com/sketch -->
    <title>Shape</title>
    <desc>Created with Sketch.</desc>
    <defs></defs>
    <g id="Nav-&amp;-footer" stroke="none" stroke-width="1" fill="none" fill-rule="evenodd">
        <g id="BootsPharmacy---Mobile---Menu2" transform="translate(-16.000000, -490.000000)" fill="#004990" fill-rule="nonzero">
            <g id="main-nav" transform="translate(0.000000, 140.000000)">
                <g id="My-orders" transform="translate(0.000000, 324.000000)">
                    <path d="M37.125,27.5959079 L35.5,27.5959079 L35.5,26.797954 C35.5,26.3572562 35.1362314,26 34.6875,26 C34.2387686,26 33.875,26.3572562 33.875,26.797954 L33.875,27.5959079 L24.125,27.5959079 L24.125,26.797954 C24.125,26.3572562 23.7612314,26 23.3125,26 C22.8637686,26 22.5,26.3572562 22.5,26.797954 L22.5,27.5959079 L20.875,27.5959079 C18.1826118,27.5959079 16,29.7394449 16,32.3836317 L16,48.342711 C16,50.9868978 18.1826118,53.1304348 20.875,53.1304348 L37.125,53.1304348 C39.8173882,53.1304348 42,50.9868978 42,48.342711 L42,32.3836317 C42,29.7394449 39.8173882,27.5959079 37.125,27.5959079 Z M40.375,48.342711 C40.3729404,50.1046637 38.9190716,51.5325041 37.125,51.5345269 L20.875,51.5345269 C19.0809284,51.5325041 17.6270596,50.1046637 17.625,48.342711 L17.625,35.5754476 L40.375,35.5754476 L40.375,48.342711 Z M40.375,33.9795396 L17.625,33.9795396 L17.625,32.3836317 C17.6270596,30.621679 19.0809284,29.1938386 20.875,29.1918159 L22.5,29.1918159 L22.5,29.9897698 C22.5,30.4304676 22.8637686,30.7877238 23.3125,30.7877238 C23.7612314,30.7877238 24.125,30.4304676 24.125,29.9897698 L24.125,29.1918159 L33.875,29.1918159 L33.875,29.9897698 C33.875,30.4304676 34.2387686,30.7877238 34.6875,30.7877238 C35.1362314,30.7877238 35.5,30.4304676 35.5,29.9897698 L35.5,29.1918159 L37.125,29.1918159 C38.9190716,29.1938386 40.3729404,30.621679 40.375,32.3836317 L40.375,33.9795396 Z M37.125,43.5549872 C37.125,45.3177784 35.6699254,46.7468031 33.875,46.7468031 C32.0800746,46.7468031 30.625,45.3177784 30.625,43.5549872 C30.625,41.792196 32.0800746,40.3631714 33.875,40.3631714 C35.6699254,40.3631714 37.125,41.792196 37.125,43.5549872 Z" id="Shape"></path>
                </g>
            </g>
        </g>
    </g>
</svg>