<?xml version="1.0" encoding="UTF-8"?>
<svg width="28px" height="26px" viewBox="0 0 28 26" version="1.1" xmlns="http://www.w3.org/2000/svg" xmlns:xlink="http://www.w3.org/1999/xlink">
    <!-- Generator: Sketch 51.1 (57501) - http://www.bohemiancoding.com/sketch -->
    <title>Icon / health services</title>
    <desc>Created with Sketch.</desc>
    <defs></defs>
    <g id="Nav-&amp;-footer" stroke="none" stroke-width="1" fill="none" fill-rule="evenodd">
        <g id="BootsPharmacy---Mobile---Menu2" transform="translate(-15.000000, -412.000000)" fill="#004990" fill-rule="nonzero">
            <g id="main-nav" transform="translate(0.000000, 140.000000)">
                <g id="Health-services" transform="translate(15.000000, 243.000000)">
                    <g id="Group-2">
                        <g id="Icon-/-health-services" transform="translate(0.000000, 29.000000)">
                            <g id="Group" transform="translate(0.000000, 0.933333)">
                                <path d="M25.5536842,2.42844419 C22.3705263,-0.724668141 17.2715789,-0.812254594 14,2.19488032 C10.7284211,-0.812254594 5.62947368,-0.724668141 2.44631579,2.42844419 C0.884210526,3.97580488 0,6.07787977 0,8.26754111 C0,10.4572025 0.854736842,12.5008864 2.38736842,14.0482471 C2.41684211,14.0774425 2.41684211,14.0774425 2.44631579,14.106638 L11.76,23.3324112 C12.3789474,23.9455163 13.2042105,24.2666667 14,24.2666667 C14.8252632,24.2666667 15.6210526,23.9455163 16.24,23.3324112 L25.5536842,14.106638 C25.5536842,14.106638 25.5831579,14.0774425 25.5831579,14.0774425 C27.1452632,12.5300819 28,10.4572025 28,8.26754111 C28,6.04868428 27.1452632,3.97580488 25.5536842,2.42844419 Z M24.4649735,12.5206327 C24.4340163,12.5512976 24.4030592,12.5819626 24.4030592,12.5819626 L14.6825154,22.210755 C14.3110296,22.5787343 13.6918867,22.5787343 13.3204009,22.210755 L3.59985712,12.6126275 C3.56889997,12.5819626 3.56889997,12.5819626 3.53794282,12.5512976 C3.53794282,12.5512976 3.53794282,12.5512976 3.50698568,12.5206327 C2.29965699,11.3246999 1.64955692,9.76078771 1.64955692,8.07421578 C1.64955692,6.38764386 2.29965699,4.79306678 3.50698568,3.59713396 C5.98355735,1.14393844 10.0389435,1.14393844 12.5155151,3.59713396 C12.5155151,3.59713396 12.5155151,3.59713396 12.5464723,3.6277989 C12.5464723,3.6277989 12.5774294,3.65846385 12.5774294,3.65846385 L13.1346581,4.21043284 C13.3513581,4.42508745 13.6609295,4.54774722 13.970501,4.54774722 C13.970501,4.54774722 13.970501,4.54774722 13.970501,4.54774722 C14.2800725,4.54774722 14.5896439,4.42508745 14.8063439,4.17976789 L15.3326154,3.65846385 C15.3635726,3.65846385 15.3635726,3.6277989 15.3945297,3.59713396 C15.3945297,3.59713396 15.4254869,3.56646901 15.4254869,3.56646901 C17.9020585,1.11327349 21.9574446,1.11327349 24.4340163,3.59713396 C24.4340163,3.59713396 24.4340163,3.59713396 24.4340163,3.59713396 C25.641345,4.79306678 26.2914451,6.38764386 26.2914451,8.07421578 C26.3224022,9.73012276 25.6723021,11.3246999 24.4649735,12.5206327 Z" id="Shape"></path>
                                <path d="M23.1230769,7.58153846 L21.8769231,7.58153846 L21.8769231,6.41846154 C21.8769231,5.96615385 21.4846154,5.6 21,5.6 C20.5153846,5.6 20.1230769,5.96615385 20.1230769,6.41846154 L20.1230769,7.58153846 L18.8769231,7.58153846 C18.3923077,7.58153846 18,7.94769231 18,8.4 C18,8.85230769 18.3923077,9.21846154 18.8769231,9.21846154 L20.1230769,9.21846154 L20.1230769,10.3815385 C20.1230769,10.8338462 20.5153846,11.2 21,11.2 C21.4846154,11.2 21.8769231,10.8338462 21.8769231,10.3815385 L21.8769231,9.21846154 L23.1230769,9.21846154 C23.6076923,9.21846154 24,8.85230769 24,8.4 C24,7.96923077 23.6076923,7.58153846 23.1230769,7.58153846 Z" id="Shape"></path>
                            </g>
                        </g>
                    </g>
                </g>
            </g>
        </g>
    </g>
</svg>