<?xml version="1.0" encoding="UTF-8"?>
<svg width="28px" height="28px" viewBox="0 0 28 28" version="1.1" xmlns="http://www.w3.org/2000/svg" xmlns:xlink="http://www.w3.org/1999/xlink">
    <!-- Generator: Sketch 51.1 (57501) - http://www.bohemiancoding.com/sketch -->
    <title>Icon / Home_1942691</title>
    <desc>Created with Sketch.</desc>
    <defs></defs>
    <g id="Nav-&amp;-footer" stroke="none" stroke-width="1" fill="none" fill-rule="evenodd">
        <g id="BootsPharmacy---Mobile---Menu2" transform="translate(-16.000000, -164.000000)" fill="#004990">
            <g id="main-nav" transform="translate(0.000000, 140.000000)">
                <g id="My-prescriptions">
                    <g id="Icon-/-Home_1942691" transform="translate(16.000000, 24.000000)">
                        <g id="noun_Home_1942691">
                            <g id="Group" fill-rule="nonzero">
                                <path d="M22.0257405,28 L5.95290284,28 C4.98482855,28 4.16703199,27.1313584 4.16703199,26.1031389 L4.16703199,9.92665037 L5.82061611,9.92665037 L5.82061611,26.1031389 C5.82061611,26.1616321 5.89972358,26.2487064 5.95290284,26.2487064 L22.0257405,26.2487064 C22.0422102,26.2487064 22.0918839,26.189933 22.0918839,26.1031389 L22.0918839,9.92665037 L23.745468,9.92665037 L23.745468,26.1031389 C23.745468,27.1490815 22.9740379,28 22.0257405,28 Z" id="Shape"></path>
                                <path d="M0.837110427,14.8419967 C0.625517802,14.8419967 0.413925178,14.76126 0.252469224,14.5997203 C-0.0704426836,14.2767071 -0.0704426836,13.7529108 0.252469224,13.4298315 L13.3950235,0.280527139 C13.7178693,-0.0425522412 14.2414602,-0.0425522412 14.564306,0.280527139 L27.6600308,13.3830438 C27.9829427,13.7061232 27.9829427,14.2298533 27.6600308,14.5529327 C27.337185,14.8760121 26.8135941,14.8760121 26.4907484,14.5529327 L13.9796648,2.03536039 L1.42175163,14.5997203 C1.26036182,14.76126 1.04870305,14.8419967 0.837110427,14.8419967 Z" id="Shape"></path>
                            </g>
                            <path d="M13.9563551,21.1458333 C13.8420202,21.1458333 13.7277554,21.1258063 13.6201461,21.0856893 C13.4093412,21.0072133 8.45833333,19.1241028 8.45833333,15.781464 C8.45833333,14.0754582 10.0071084,12.6875 11.9108679,12.6875 C12.6611204,12.6875 13.3714398,12.8998875 13.956285,13.2868684 C14.5412003,12.8998247 15.2513095,12.6875 16.001562,12.6875 C16.9238072,12.6875 17.7908466,13.0093144 18.4429476,13.5936783 C19.0951188,14.1781048 19.4542367,14.9550802 19.4541667,15.7815268 C19.4541667,19.1528564 14.4990954,21.0099129 14.2882204,21.0873216 C14.1818722,21.1263713 14.0690786,21.1458333 13.9563551,21.1458333 Z M11.910938,14.2570203 C10.9729297,14.2570203 10.2098566,14.9408917 10.2098566,15.781464 C10.2098566,17.6662068 12.9952276,19.0677884 13.9648321,19.4983392 C15.2573345,18.9445497 17.7027835,17.5349321 17.7027835,15.781464 C17.7028536,15.3742049 17.5259568,14.9914303 17.2046702,14.7035175 C16.8833136,14.4156047 16.4560991,14.2570203 16.0017021,14.2570203 C15.46877,14.2570203 14.9764014,14.4748697 14.6511215,14.8547564 C14.4854341,15.0483097 14.228671,15.1617546 13.9564251,15.1617546 C13.6841793,15.1617546 13.4274162,15.0483097 13.2617288,14.8547564 C12.9363087,14.4749325 12.4440103,14.2570203 11.910938,14.2570203 Z" id="Shape" fill-rule="nonzero"></path>
                        </g>
                    </g>
                </g>
            </g>
        </g>
    </g>
</svg>