<?xml version="1.0" encoding="UTF-8"?>
<svg width="141px" height="31px" viewBox="0 0 141 31" version="1.1" xmlns="http://www.w3.org/2000/svg" xmlns:xlink="http://www.w3.org/1999/xlink">
    <!-- Generator: Sketch 51.1 (57501) - http://www.bohemiancoding.com/sketch -->
    <title>Group</title>
    <desc>Created with Sketch.</desc>
    <defs>
        <polygon id="path-1" points="1.05331398e-06 2.3907455e-05 50.9681885 2.3907455e-05 50.9681885 31 1.05331398e-06 31"></polygon>
    </defs>
    <g id="Symbols" stroke="none" stroke-width="1" fill="none" fill-rule="evenodd">
        <g id="Nav-/-3-Menu-left" transform="translate(-58.000000, -20.000000)">
            <g id="Group" transform="translate(58.000000, 20.000000)">
                <g id="Group-24">
                    <g id="Group-3">
                        <mask id="mask-2" fill="white">
                            <use xlink:href="#path-1"></use>
                        </mask>
                        <g id="Clip-2"></g>
                        <path d="M20.7409902,24.7984699 C20.9627744,24.4269481 21.2802983,24.2530213 21.6541654,24.1603799 C21.7955219,24.1253555 21.9336884,24.0772219 22.0728917,24.0339095 C27.4900567,22.3468003 32.907102,20.6594121 38.3243468,18.9723825 C39.2405923,18.687047 39.9996908,18.1983787 40.4341278,17.3087424 C40.6492529,16.8683272 40.8343124,16.4132887 41.0414226,15.9687296 C41.0774296,15.8915085 41.1466525,15.8223362 41.2157158,15.7691023 C41.5514226,15.5103041 41.9215016,15.2887219 42.2252287,14.9974892 C42.8733952,14.3760946 43.1433483,13.5857938 43.1133624,12.6950817 C43.0972529,12.2162553 42.9031419,11.7823748 42.7402529,11.340565 C42.5436697,10.8072296 42.3549816,10.2706267 42.1784156,9.73043779 C42.102733,9.49877455 42.1268972,9.29201491 42.371769,9.13271157 C42.5664781,9.00600206 42.7186407,8.80565758 42.7160489,8.55594422 C42.7148925,8.44796221 42.65193,8.29395835 42.5683522,8.24650206 C42.4837377,8.19848792 42.3033436,8.21386838 42.2282193,8.27686452 C42.0863045,8.3959635 41.984145,8.56518843 41.8758448,8.72078612 C41.7745625,8.86642237 41.7012326,9.03309717 41.5905399,9.17028612 C41.0568542,9.83200463 40.5082154,10.4816897 39.9801122,11.1477116 C39.8474883,11.3149841 39.7131896,11.3619622 39.5092694,11.3439121 C38.4991583,11.2546576 37.6056415,11.9198825 37.3892803,12.9133967 C37.2968503,13.3377141 37.3360872,13.7561743 37.4585829,14.1707296 C37.476088,14.2300599 37.478321,14.3303118 37.4427525,14.363344 C36.9279277,14.8415329 36.4112287,15.3181679 35.8799754,15.7778285 C35.772034,15.8712668 35.606593,15.9142206 35.4602522,15.9435869 C35.2517463,15.9853452 35.1006603,15.8651704 35.0994242,15.6527129 C35.0984672,15.4982707 35.1244257,15.3335085 35.1814468,15.1904622 C35.532346,14.3099506 35.8963241,13.4346987 36.2544406,12.5570162 C36.852923,11.090254 37.4490129,9.62245578 38.0518417,8.15740694 C38.081389,8.08560488 38.1573905,7.9976653 38.2256564,7.98340051 C38.4456462,7.9374982 38.6721357,7.92259589 38.896113,7.89566015 C40.0159996,7.76106118 41.1360059,7.62721928 42.2555735,7.48963188 C42.3101224,7.48297763 42.3850872,7.45859203 42.4092912,7.41794936 C42.5774437,7.13532339 42.7346306,6.84624242 42.9178159,6.51910874 L38.6789941,6.51910874 C38.8152866,6.20058175 38.9383405,5.91293522 39.0676947,5.6106653 C38.8649707,5.6106653 38.6970973,5.63066787 38.5356439,5.60691979 C38.0476548,5.53515758 37.7394617,5.71406504 37.6251403,6.20460617 C37.5797228,6.39941208 37.4585829,6.45543522 37.2507549,6.4551563 C32.2598925,6.44778483 27.2690301,6.44941851 22.2781278,6.44941851 L22.0209746,6.44941851 C22.0301458,6.47627455 23.1183718,9.65620514 23.1245524,9.67421542 C27.6347228,9.174709 32.1490403,8.67476427 36.702156,8.17047635 C36.3879816,8.78776684 36.0915516,9.37015244 35.7910543,9.9605072 C35.6410051,9.89735167 35.511611,9.82399563 35.3725672,9.78817429 C35.0342287,9.70107147 34.6944945,9.58623599 34.3498956,9.5631653 C33.3490356,9.49618458 32.4422404,9.81279897 31.5902334,10.3177244 C31.505898,10.367691 31.3741114,10.3965393 31.2844726,10.369245 C30.7140223,10.1955573 30.1391857,10.1619674 29.5526259,10.2581949 C28.8080817,10.380362 28.1301685,10.6729892 27.4849128,11.0520817 C27.3798425,11.1138028 27.2742138,11.1744879 27.1621654,11.239556 C26.9934148,10.8040419 26.749819,10.4775856 26.3005086,10.3657784 C25.9505665,10.2787553 25.5904562,10.2725393 25.2636814,10.4217219 C24.8317963,10.6189584 24.4123921,10.848191 24.0055884,11.0933221 C23.834844,11.1962437 23.7171333,11.239835 23.5302396,11.1282668 C23.1560536,10.9049314 22.7427901,10.8645676 22.3175641,10.9609943 C22.2321521,10.9803594 22.1474179,11.0025136 22.023407,11.0329159 C23.0142185,9.38150848 22.8758925,7.91458689 21.4037909,6.6021473 C21.7162506,6.38757789 22.0198581,6.18803033 22.3113436,5.97214602 C22.3753428,5.92468972 22.3962772,5.81925784 22.4370293,5.74052262 C22.3492647,5.7205599 22.246188,5.66055219 22.1762076,5.68724884 C21.7808878,5.83810488 21.3888378,5.99983882 21.0058393,6.17954319 C20.8667557,6.24477069 20.7539894,6.25648535 20.6115962,6.20548278 C19.2937306,5.73354961 17.9283342,5.6256473 16.567045,5.87376684 C14.6102639,6.23046607 12.8519402,7.03714344 11.4132936,8.45632982 C10.7950731,9.06616915 10.2907353,9.7468144 10.0246501,10.5843324 C9.66505825,11.7161512 10.163016,12.6840843 11.2428284,12.9765123 C12.0796032,13.2031152 12.717163,12.6561923 12.918292,12.0335625 C12.8701231,12.0160303 12.8219941,11.9969841 12.7728284,11.9809262 C12.0687174,11.7513748 11.8797901,11.4211332 11.9943905,10.6861383 C12.0894523,10.0764584 12.3577306,9.54591208 12.7335915,9.07684781 C13.6079285,7.98579126 14.728812,7.24031697 16.0618299,6.82121928 C16.9491661,6.54225913 17.8533694,6.3870599 18.7866814,6.54309589 C19.1153702,6.59804319 19.4283483,6.69227841 19.6969457,6.94191208 C19.6045954,7.00064473 19.5297103,7.05288252 19.4506783,7.09782853 C18.6705657,7.54127198 17.9804906,8.09305604 17.382088,8.76457661 C16.658837,9.57611517 16.0367486,10.4609301 15.4796165,11.3892964 C15.2823952,11.7179442 15.0812263,11.9294057 14.6756188,11.8289943 C14.6319558,11.8181961 14.5825508,11.8249699 14.5365352,11.83011 C14.109794,11.8779249 13.6817768,11.9396859 13.3905704,12.2986563 C13.2872545,12.4259635 13.1745281,12.6067039 13.1858127,12.7538542 C13.2142435,13.1231846 13.3668049,13.4578491 13.6771114,13.694254 C13.8033155,13.7904416 13.9324703,13.8828041 14.092249,14.0004288 C13.4695227,15.3492077 12.8438057,16.7043221 12.2426118,18.0064815 C11.8405532,17.9462746 11.5072787,17.8476961 11.1770348,17.8569404 C10.447364,17.8773812 9.87607623,18.2347977 9.45029203,18.8196936 C8.72401056,19.8173915 8.74414738,21.1905959 9.50591751,22.1986537 C9.611905,22.3389108 9.60775801,22.4244198 9.49503167,22.5475432 C8.97837256,23.1119185 8.34105199,23.4294892 7.58063761,23.497745 C7.36818413,23.516871 7.15744527,23.5017296 6.95559851,23.3730278 C7.10700352,23.3084776 7.24002619,23.2644082 7.3607674,23.1981049 C7.76513878,22.9760445 7.96267905,22.5814519 7.86351016,22.2137951 C7.73961884,21.7544134 7.3396337,21.420227 6.87648671,21.3891473 C6.2878534,21.3496602 5.73506763,21.6477064 5.53960086,22.1323504 C5.34098397,22.624844 5.44306372,23.0848632 5.88762901,23.5436075 C6.44332565,24.1169879 7.14951016,24.2450123 7.90450156,24.1738877 C8.73653127,24.0954712 9.47477522,23.7445098 10.17131,23.3094339 C10.3906618,23.1723645 10.5492443,23.1644352 10.7776876,23.292619 C11.9418753,23.9457308 13.1865305,24.1649224 14.505672,23.9205882 C15.6892787,23.701317 16.6814859,23.1255856 17.5082123,22.2679057 C19.0200692,20.6995368 19.5321826,18.8133581 19.2382248,16.6829249 C19.1215109,15.8368799 18.7755962,15.068853 18.4151271,14.3065239 C18.3652435,14.2010522 18.3147619,14.0959391 18.2698628,14.0017835 C18.8382396,13.7178427 19.4055797,13.4811987 19.9229965,13.1633889 C20.4927291,12.8134635 21.001812,12.3659558 21.5649253,12.0038774 C22.0487674,11.6928414 22.5894711,11.6418787 23.1695711,11.8468851 C23.0589582,11.9679763 22.9660496,12.0700213 22.8727424,12.1716679 C21.6909699,13.4595625 20.8191849,14.9211447 20.38726,16.6257463 C20.1799902,17.4437797 20.1321802,18.2604185 20.4447995,19.0697257 C20.639389,19.5734159 20.9841075,19.9042951 21.5181122,20.0027141 C21.8943319,20.0720059 22.2587885,19.9675303 22.6087306,19.8384699 C23.5050786,19.5078697 24.1747377,18.8806177 24.763371,18.1551859 C25.3858581,17.3879956 25.8699394,16.5353362 26.3002295,15.6493658 C26.8221122,14.5747656 27.2493319,13.4741859 27.295188,12.2598067 C27.2980989,12.1828247 27.3344648,12.0805008 27.3913264,12.0361524 C28.0306806,11.5374429 28.7233475,11.1376306 29.5279034,10.9723105 C29.7545923,10.9257308 29.9897346,10.9201524 30.221009,10.8957668 L30.2627181,10.9799211 C30.2267111,10.9971344 30.1851216,11.0076936 30.1554547,11.0325175 C29.4460403,11.6250239 28.8531005,12.3228028 28.3476063,13.0914275 C27.7888792,13.9410586 27.2751708,14.8167488 27.0513929,15.8264802 C26.8971568,16.5223864 26.8811271,17.2088889 27.223174,17.8627578 C27.6264687,18.633574 28.319973,18.8897823 29.1342584,18.5834481 C29.7044296,18.369038 30.1930966,18.0338555 30.620396,17.6067887 C31.6216548,16.6059031 32.2204163,15.3826781 32.5351489,14.0209095 C32.696403,13.3233298 32.714586,12.6057476 32.4615399,11.919245 C32.3426329,11.5968131 32.1506751,11.3012373 31.9889425,10.9878504 C33.1074335,10.0502797 34.719855,10.0774545 35.528518,10.6442604 C35.4936274,10.7245895 35.4579793,10.8089429 35.4204969,10.8924995 C34.8392404,12.1868093 34.2550332,13.4798041 33.6789605,14.7763851 C33.5771599,15.0054584 33.4919871,15.2450111 33.4284664,15.4873928 C33.1846314,16.417353 33.6982201,17.115092 34.6183733,17.1146936 C35.016604,17.1145342 35.4086142,17.0429314 35.7447596,16.8336614 C36.137009,16.5894069 36.5207651,16.3209262 36.8671185,16.0163054 C37.2340473,15.6934751 37.5527275,15.3158967 37.9097674,14.9442154 C38.4120715,15.6541871 39.0882701,15.9165316 39.9419519,15.9472925 C39.7920622,16.1247656 39.7010278,16.2899661 39.5620637,16.385317 C39.2523554,16.5978542 38.9393374,16.8361717 38.590432,16.9545933 C37.8954922,17.1904404 37.1794586,17.3689095 36.4652193,17.5425972 C32.317113,18.5515316 28.1661755,19.548871 24.0183483,20.5590805 C23.3824633,20.7139211 22.7342568,20.8581627 22.1329034,21.1068401 C20.9222217,21.6074622 20.312016,22.6087463 20.3704328,23.8607 C20.3861833,24.1977951 20.5025782,24.503173 20.7409902,24.7984699 M25.2015164,2.3907455e-05 L25.9192647,2.3907455e-05 C26.0102991,0.0130534704 26.101174,0.0363233933 26.1923679,0.0375984576 C27.3483014,0.0538953728 28.5002873,0.122669152 29.6513561,0.236508483 C31.0062256,0.370509769 32.3500895,0.567268123 33.6817518,0.846467352 C36.0769973,1.3486036 38.4059308,2.05666272 40.6377291,3.07276941 C42.4629629,3.90379254 44.1954476,4.88288252 45.7656814,6.14033496 C46.6032138,6.81105861 47.385041,7.53776555 48.0795422,8.35308946 C48.9045938,9.3217 49.6051959,10.3705997 50.1088557,11.5485997 C50.5587244,12.6008864 50.8513264,13.689871 50.9405665,14.8274674 C51.087346,16.6974686 50.6406673,18.4554237 49.8026564,20.1076679 C49.0107009,21.6691833 47.8946024,22.9986769 46.5903741,24.1583877 C45.4320082,25.1883208 44.1597596,26.0644892 42.8063256,26.8284519 C41.1179027,27.7815226 39.346181,28.5404249 37.5077885,29.1389879 C35.779371,29.7018093 34.0147072,30.1297925 32.2174656,30.4225393 C30.932457,30.6318093 29.6411083,30.7806332 28.3436188,30.8690111 C27.5290145,30.9244763 26.7111403,30.9307321 25.8947815,30.9619712 C25.7830121,30.9661949 25.6718409,30.9869147 25.5603905,31.0000239 L25.4407658,31.0000239 C25.3492131,30.987592 25.2578995,30.9664339 25.1661075,30.9641229 C23.9179433,30.9326049 22.671733,30.8872604 21.4271974,30.7645355 C20.1119238,30.6349172 18.8061802,30.4506704 17.51212,30.1907167 C15.8928401,29.8654558 14.3020708,29.4326113 12.7413272,28.8862463 C10.3092373,28.034862 8.02205278,26.9019674 5.92355629,25.405281 C5.34632721,24.9935548 4.79629281,24.5376794 4.27046247,24.0616023 C3.48676114,23.352029 2.76215442,22.5798979 2.15721228,21.7099853 C1.78677443,21.1772874 1.4241122,20.6310021 1.13342416,20.0529596 C0.595232604,18.9827424 0.220807271,17.8507643 0.0741473808,16.6541961 C-0.0518971853,15.6257373 -0.0225093823,14.6043311 0.202943315,13.5882244 C0.453198202,12.4605098 0.855177091,11.3970663 1.43248593,10.3934712 C2.26359851,8.9487437 3.35230297,7.72551877 4.59823417,6.63362545 C6.01008483,5.39625527 7.58857271,4.40325913 9.26004887,3.56442622 C10.873826,2.75456118 12.5468972,2.07722314 14.2935375,1.60509075 C15.4891865,1.2819018 16.6879058,0.958951928 17.9012193,0.715016195 C18.9590606,0.502399229 20.0364406,0.375610026 21.1103514,0.257467352 C21.9935407,0.160243702 22.884027,0.12729126 23.7717619,0.0739377892 C24.1429574,0.0516640103 24.5155086,0.0523015424 24.8872623,0.0378375321 C24.9923327,0.033733419 25.0967651,0.0130534704 25.2015164,2.3907455e-05" id="Fill-1" fill="#FFFFFF" mask="url(#mask-2)"></path>
                    </g>
                    <path d="M11.15625,22.0673651 C11.2367495,21.9786728 11.2996899,21.9059321 11.3663586,21.8364891 C12.4312135,20.7280849 13.2898885,19.4820601 13.9943797,18.1425882 C14.6085093,16.9749792 15.1772978,15.7855134 15.7593159,14.602643 C15.8222161,14.4748004 15.8959806,14.4356116 16.0421466,14.425987 C16.3861538,14.403325 16.7279561,14.3507539 17.0925693,14.3076923 C17.325168,14.7200174 17.4583451,15.1843385 17.5018822,15.6706698 C17.6308097,17.1113728 17.3387984,18.470554 16.5552911,19.7099452 C15.7699796,20.9522122 14.6969866,21.860263 13.1664532,22.1751149 C12.49692,22.3128122 11.8343623,22.2747355 11.15625,22.0673651" id="Fill-4" fill="#FFFFFF"></path>
                    <path d="M26.296875,11.6920994 C26.1768995,12.0757188 26.0737222,12.4649669 25.9341223,12.842051 C25.3119535,14.5232145 24.4510279,16.0815291 23.2256778,17.4416686 C22.9870006,17.7065946 22.7091941,17.9505924 22.4114049,18.1541317 C22.0001684,18.4352259 21.5950621,18.2313844 21.5292229,17.7543439 C21.4685186,17.3151176 21.6205778,16.9195609 21.7965604,16.5332216 C22.6514355,14.6564896 23.7923569,12.9572313 25.3070972,11.4937732 C25.4089609,11.3953657 25.5145266,11.2969582 25.6325914,11.2176655 C25.9062979,11.0338077 26.1736752,11.143246 26.2315134,11.4552413 C26.2452465,11.5292453 26.2507796,11.6046848 26.2600146,11.6794065 C26.2723147,11.6836375 26.2845749,11.6878684 26.296875,11.6920994" id="Fill-6" fill="#FFFFFF"></path>
                    <path d="M30.7700579,11.1282051 C30.9628898,11.3367245 31.019165,11.5707186 31.0493869,11.815228 C31.1451515,12.5904599 30.9927023,13.3265671 30.7238691,14.0396598 C30.3578197,15.0105151 29.9418224,15.956848 29.3073121,16.7658477 C29.1131403,17.0133728 28.8677924,17.239034 28.6044676,17.3956517 C28.2216697,17.6233763 27.9274531,17.4097779 27.8958914,16.9364725 C27.8634736,16.4507076 27.9855521,15.9901 28.1293665,15.5417138 C28.6430265,13.9403006 29.509486,12.5664137 30.5687401,11.321527 C30.6258713,11.2543881 30.6954337,11.1992327 30.7700579,11.1282051" id="Fill-8" fill="#FFFFFF"></path>
                    <path d="M17.5732145,13.5128205 C17.2922261,13.2990151 17.0265555,13.0968848 16.734375,12.8746607 C17.8000393,11.1722789 18.7387504,9.35818947 20.3052022,7.94871795 C20.5446897,8.25743323 20.6466036,8.59426408 20.6906778,8.95095056 C20.8528415,10.2638046 20.2969102,11.3196474 19.4240858,12.2561182 C18.898504,12.8199783 18.2141081,13.1672929 17.5732145,13.5128205" id="Fill-10" fill="#FFFFFF"></path>
                    <path d="M39.7944512,11.9230769 C40.4311967,12.3137994 40.7801109,13.2951312 40.5879065,14.0779233 C40.4841279,14.5005569 40.3371781,14.8587788 39.9374164,15.0083151 C39.4702114,15.183153 39.0368193,15.1139419 38.6321227,14.8073336 C38.1509904,14.4428389 38.1478832,14.4002767 38.4904369,13.8852353 C38.9230613,13.2348452 39.3552104,12.5839919 39.7944512,11.9230769" id="Fill-12" fill="#FFFFFF"></path>
                    <path d="M41.8739938,13.5128205 C41.809347,12.5247238 41.3994837,11.7788893 40.640625,11.2138681 C41.0529669,10.6578631 41.4546224,10.1163168 41.8832175,9.53846154 C42.1722794,10.8687714 42.5066063,12.1544058 41.8739938,13.5128205" id="Fill-14" fill="#FFFFFF"></path>
                    <path d="M10.1911867,21.4615385 C9.12943993,20.6374874 9.5776105,19.5695833 10.322379,19.0769231 C10.4086263,19.295021 10.4606601,19.5295119 10.5942646,19.7349327 C10.726343,19.9380585 10.940878,20.1118228 11.15625,20.3371701 C10.8565015,20.686411 10.5269701,21.0703319 10.1911867,21.4615385" id="Fill-16" fill="#FFFFFF"></path>
                    <path d="M39.84375,11.9634749 C39.3497801,12.4827091 38.8610035,12.9965113 38.369794,13.5128205 C38.1373129,13.279319 38.2582087,12.6538752 38.602977,12.3102895 C38.9160242,11.9983083 39.4196789,11.8440081 39.84375,11.9634749" id="Fill-18" fill="#FFFFFF"></path>
                    <path d="M14.34375,12.8102785 C14.2322472,13.0524526 14.1258669,13.2834982 14.0202585,13.5128205 C13.6889779,13.4236476 13.4916201,13.1922072 13.5605638,12.9825215 C13.6505589,12.7085768 13.9379822,12.640656 14.34375,12.8102785" id="Fill-20" fill="#FFFFFF"></path>
                    <path d="M16.9904667,13.5128205 C17.1655498,13.5712742 17.3129042,13.6204838 17.53125,13.6934015 C17.2324037,13.7167909 17.0245107,13.733048 16.734375,13.7557601 C16.8395555,13.6559465 16.9103292,13.5888462 16.9904667,13.5128205" id="Fill-22" fill="#FFFFFF"></path>
                </g>
                <g id="Group-41" transform="translate(58.000000, 6.000000)" fill="#FFFFFF">
                    <g id="Group-40">
                        <path d="M7.03479576,9.127925 C7.03479576,7.81855761 6.31186514,6.72827932 5,6.72827932 C3.68813486,6.72827932 2.96628485,7.81855761 2.96628485,9.127925 C2.96628485,10.4372924 3.68813486,11.5275707 5,11.5275707 C6.31186514,11.5275707 7.03479576,10.4372924 7.03479576,9.127925 Z M0,5.6555695 C0,4.8370857 0.608385563,4.18291873 1.48260212,4.18291873 C2.20553274,4.18291873 2.66155176,4.65520041 2.87119084,5.09131173 C3.53684893,4.31003174 4.29652042,4 5.41819754,4 C8.00410633,4 10,6.27253266 10,9.127925 C10,11.9822839 8.00410633,14.2548166 5.41819754,14.2548166 C4.14523449,14.2548166 3.49902745,13.8734775 2.96628485,13.4549347 L2.96628485,16.5273492 C2.96628485,17.345833 2.35789929,18 1.48260212,18 C0.608385563,18 0,17.345833 0,16.5273492 L0,5.6555695 Z" id="Fill-24"></path>
                        <path d="M11,1.46121731 C11,0.650113528 11.5949977,0 12.4510333,0 C13.3060122,0 13.9010099,0.650113528 13.9010099,1.46121731 L13.9010099,4.70870871 L13.9379991,4.70870871 C14.5329967,4.3477624 15.2759512,4.00424815 16.3919681,4.00424815 C18.399953,4.00424815 20,5.01530799 20,7.32454406 L20,12.5387827 C20,13.3509119 19.4039455,14 18.5489667,14 C17.692931,14 17.0989901,13.3509119 17.0989901,12.5387827 L17.0989901,8.08232623 C17.0989901,7.10818135 16.5039925,6.38731414 15.5,6.38731414 C14.4960075,6.38731414 13.9010099,7.10818135 13.9010099,8.08232623 L13.9010099,12.5387827 C13.9010099,13.3509119 13.3060122,14 12.4510333,14 C11.5949977,14 11,13.3509119 11,12.5387827 L11,1.46121731 Z" id="Fill-26"></path>
                        <path d="M23.9652042,9.00050388 C23.9652042,10.2773355 24.6892155,11.340522 26,11.340522 C27.3129458,11.340522 28.0347958,10.2773355 28.0347958,9.00050388 C28.0347958,7.72367228 27.3129458,6.66048574 26,6.66048574 C24.6892155,6.66048574 23.9652042,7.72367228 23.9652042,9.00050388 Z M31,12.3865766 C31,13.1847224 30.3916144,13.8226343 29.5173979,13.8226343 C28.7944673,13.8226343 28.3384482,13.3620881 28.1298898,12.9358057 C27.4642317,13.6986798 26.7034796,14 25.5818025,14 C22.9969743,14 21,11.7839363 21,9.00050388 C21,6.21606369 22.9969743,4 25.5818025,4 C26.7034796,4 27.4642317,4.30232793 28.1298898,5.0641943 C28.3384482,4.63891968 28.7944673,4.17837348 29.5173979,4.17837348 C30.3916144,4.17837348 31,4.8162854 31,5.61443112 L31,12.3865766 Z" id="Fill-28"></path>
                        <path d="M32,5.64341403 C32,4.83093968 32.5571712,4.18157571 33.3602115,4.18157571 C34.0928619,4.18157571 34.5459352,4.66885515 34.720423,5.08329914 C35.1734964,4.52421009 35.8367482,4 36.6050892,4 C37.3020489,4 38,4.57858022 38,5.46286418 C38,6.43742306 37.2842036,6.67234304 36.290813,6.97907263 C35.1040978,7.33914649 34.720423,7.66536725 34.720423,9.10874025 L34.720423,12.5381617 C34.720423,13.350636 34.1632518,14 33.3602115,14 C32.5571712,14 32,13.350636 32,12.5381617 L32,5.64341403 Z" id="Fill-30"></path>
                        <path d="M39,5.64341403 C39,4.83093968 39.5743642,4.18157571 40.3996939,4.18157571 C41.1525905,4.18157571 41.6198353,4.66885515 41.7993879,5.08329914 C42.2482693,4.38059089 43.1990818,4 44.2049843,4 C45.0129709,4 46.1249727,4.29031596 46.8064563,5.15510874 C47.471617,4.65038982 48.3153101,4 49.5181083,4 C51.4554398,4 53,5.01148954 53,7.32170702 L53,12.5381617 C53,13.350636 52.4246156,14 51.6003061,14 C50.7739561,14 50.1995919,13.350636 50.1995919,12.5381617 L50.1995919,8.07981124 C50.1995919,7.19552729 49.715004,6.38407879 48.7988778,6.38407879 C47.8837718,6.38407879 47.3991839,7.19552729 47.3991839,8.07981124 L47.3991839,12.5381617 C47.3991839,13.350636 46.8248196,14 45.9994899,14 C45.1741602,14 44.5987758,13.350636 44.5987758,12.5381617 L44.5987758,8.07981124 C44.5987758,7.19552729 44.115208,6.38407879 43.1990818,6.38407879 C42.2839758,6.38407879 41.7993879,7.19552729 41.7993879,8.07981124 L41.7993879,12.5381617 C41.7993879,13.350636 41.2260439,14 40.3996939,14 C39.5743642,14 39,13.350636 39,12.5381617 L39,5.64341403 Z" id="Fill-32"></path>
                        <path d="M56.9662848,9.00050388 C56.9662848,10.2773355 57.6881349,11.340522 59,11.340522 C60.3118651,11.340522 61.0347958,10.2773355 61.0347958,9.00050388 C61.0347958,7.72367228 60.3118651,6.66048574 59,6.66048574 C57.6881349,6.66048574 56.9662848,7.72367228 56.9662848,9.00050388 Z M64,12.3865766 C64,13.1847224 63.3916144,13.8226343 62.5173979,13.8226343 C61.7955479,13.8226343 61.3384482,13.3620881 61.1298898,12.9358057 C60.4642317,13.6986798 59.7034796,14 58.5818025,14 C55.9969743,14 54,11.7839363 54,9.00050388 C54,6.21606369 55.9969743,4 58.5818025,4 C59.7034796,4 60.4642317,4.30232793 61.1298898,5.0641943 C61.3384482,4.63891968 61.7955479,4.17837348 62.5173979,4.17837348 C63.3916144,4.17837348 64,4.8162854 64,5.61443112 L64,12.3865766 Z" id="Fill-34"></path>
                        <path d="M69.69627,4 C70.9456991,4 73,4.35573919 73,5.82706843 C73,6.57180288 72.5006344,7.12103195 71.8571429,7.12103195 C71.1436184,7.12103195 70.9456991,6.66048574 69.8566354,6.66048574 C68.4468409,6.66048574 67.7860949,7.72367228 67.7860949,9.00050388 C67.7860949,10.2773355 68.4640954,11.340522 69.69627,11.340522 C70.8929206,11.340522 71.4470946,10.8618361 71.8571429,10.8618361 C72.5006344,10.8618361 73,11.4997481 73,12.0852565 C73,13.4689106 70.8036031,14 69.69627,14 C66.8756661,14 65,11.7839363 65,9.00050388 C65,6.21606369 66.8756661,4 69.69627,4" id="Fill-36"></path>
                        <path d="M76.9884051,12.9706806 L74.5944072,7.13089005 C74.2700921,6.35811518 74,5.67539267 74,5.34450262 C74,4.49633508 74.6660225,4 75.3678527,4 C76.0522906,4 76.5382517,4.36753927 76.8073207,5.08691099 L78.4636808,9.47015707 L80.0300102,5.56544503 C80.390133,4.68062827 80.7860634,4 81.560532,4 C82.4229851,4 83,4.57068063 83,5.45445026 C83,5.87853403 82.8025463,6.37591623 82.6582926,6.7078534 L78.5005115,16.6366492 C78.1761964,17.3926702 77.941912,18 76.9699898,18 C75.9622599,18 75.5837217,17.1895288 75.5837217,16.7099476 C75.5837217,16.2136126 75.7289985,15.8816754 76.0522906,15.1267016 L76.9884051,12.9706806 Z" id="Fill-38"></path>
                    </g>
                </g>
            </g>
        </g>
    </g>
</svg>