<?xml version="1.0" encoding="UTF-8"?>
<svg width="28px" height="19px" viewBox="0 0 28 19" version="1.1" xmlns="http://www.w3.org/2000/svg" xmlns:xlink="http://www.w3.org/1999/xlink">
    <!-- Generator: Sketch 51.1 (57501) - http://www.bohemiancoding.com/sketch -->
    <title>menu</title>
    <desc>Created with Sketch.</desc>
    <defs></defs>
    <g id="Symbols" stroke="none" stroke-width="1" fill="none" fill-rule="evenodd">
        <g id="Nav-/-3-Menu-left" transform="translate(-15.000000, -26.000000)" fill="#FFFFFF">
            <g id="menu" transform="translate(15.000000, 26.000000)">
                <path d="M26.4346009,18.6666667 C27.299147,18.6666667 28,17.9762103 28,17.1111111 L28,17.1111111 C28,16.2520015 27.3078613,15.5555556 26.4346009,15.5555556 L1.56539907,15.5555556 C0.700853038,15.5555556 0,16.2460119 0,17.1111111 L0,17.1111111 C0,17.9702207 0.692138672,18.6666667 1.56539907,18.6666667 L26.4346009,18.6666667 Z M26.4346009,10.8888889 C27.299147,10.8888889 28,10.1984325 28,9.33333333 L28,9.33333333 C28,8.47422372 27.3078613,7.77777778 26.4346009,7.77777778 L1.56539907,7.77777778 C0.700853038,7.77777778 0,8.46823417 0,9.33333333 L0,9.33333333 C0,10.1924429 0.692138672,10.8888889 1.56539907,10.8888889 L26.4346009,10.8888889 Z M0,1.55555556 C0,2.41466517 0.692138672,3.11111111 1.56539907,3.11111111 L26.4346009,3.11111111 C27.299147,3.11111111 28,2.42065472 28,1.55555556 L28,1.55555556 C28,0.696445945 27.3078613,0 26.4346009,0 L1.56539907,0 C0.700853038,0 0,0.69045639 0,1.55555556 L0,1.55555556 Z" id="Shape"></path>
            </g>
        </g>
    </g>
</svg>