<?xml version="1.0" encoding="UTF-8"?>
<svg width="22px" height="28px" viewBox="0 0 22 28" version="1.1" xmlns="http://www.w3.org/2000/svg" xmlns:xlink="http://www.w3.org/1999/xlink">
    <!-- Generator: Sketch 51.1 (57501) - http://www.bohemiancoding.com/sketch -->
    <title>colour</title>
    <desc>Created with Sketch.</desc>
    <defs>
        <path d="M6.5135107,0.483875 L5.39148732,2.625 L0.916685764,2.625 C0.41021688,2.625 0,3.017 0,3.5 L0,27.125 C0,27.6084375 0.41021688,28 0.916685764,28 L21.0833142,28 C21.5897831,28 22,27.6084375 22,27.125 L22,3.5 C22,3.017 21.5897831,2.625 21.0833142,2.625 L16.6085127,2.625 L15.4869476,0.483875 C15.3315694,0.1876875 15.0139378,0 14.6665139,0 L7.33348611,0 C6.98606221,0 6.66888894,0.1876875 6.5135107,0.483875 L6.5135107,0.483875 Z M14.099955,14.0965517 L11.40027,14.0965517 L11.40027,11.4896552 C11.40027,11.0099862 10.9970499,10.6206897 10.500225,10.6206897 C10.0029501,10.6206897 9.60018001,11.0099862 9.60018001,11.4896552 L9.60018001,14.0965517 L6.900045,14.0965517 C6.40277014,14.0965517 6,14.4858483 6,14.9655172 C6,15.4456207 6.40277014,15.8344828 6.900045,15.8344828 L9.60018001,15.8344828 L9.60018001,18.4413793 C9.60018001,18.9214828 10.0029501,19.3103448 10.500225,19.3103448 C10.9970499,19.3103448 11.40027,18.9214828 11.40027,18.4413793 L11.40027,15.8344828 L14.099955,15.8344828 C14.5972299,15.8344828 15,15.4456207 15,14.9655172 C15,14.4858483 14.5972299,14.0965517 14.099955,14.0965517 L14.099955,14.0965517 Z M2,26.0689655 L20,26.0689655 L20,4.82758621 L17.4065852,4.82758621 L18.0528013,6.04854069 C18.1513538,6.18491034 18.2089552,6.34931862 18.2089552,6.52689655 C18.2089552,6.99633103 17.8061952,7.37655172 17.3089327,7.37655172 L4.7000675,7.37655172 C4.38775969,7.37655172 4.09840246,7.22403862 3.93459836,6.97381517 C3.77034426,6.7231669 3.75549389,6.41049379 3.89499737,6.14710069 L4.59341484,4.82758621 L2,4.82758621 L2,26.0689655 L2,26.0689655 Z M14.1418684,1.93103448 L16,5.79310345 L6,5.79310345 L7.85813165,1.93103448 L14.1418684,1.93103448 L14.1418684,1.93103448 Z" id="path-1"></path>
    </defs>
    <g id="Nav-&amp;-footer" stroke="none" stroke-width="1" fill="none" fill-rule="evenodd">
        <g id="BootsPharmacy---Mobile---Menu2" transform="translate(-20.000000, -245.000000)">
            <g id="main-nav" transform="translate(0.000000, 140.000000)">
                <g id="My-prescriptions" transform="translate(0.000000, 81.000000)">
                    <g id="colour" transform="translate(20.000000, 24.000000)">
                        <mask id="mask-2" fill="white">
                            <use xlink:href="#path-1"></use>
                        </mask>
                        <use id="Mask" fill="#004990" xlink:href="#path-1"></use>
                    </g>
                </g>
            </g>
        </g>
    </g>
</svg>