<?xml version="1.0" encoding="UTF-8"?>
<svg width="28px" height="28px" viewBox="0 0 28 28" version="1.1" xmlns="http://www.w3.org/2000/svg" xmlns:xlink="http://www.w3.org/1999/xlink">
    <!-- Generator: Sketch 51.1 (57501) - http://www.bohemiancoding.com/sketch -->
    <title>icon / settings </title>
    <desc>Created with Sketch.</desc>
    <defs></defs>
    <g id="Nav-&amp;-footer" stroke="none" stroke-width="1" fill="none" fill-rule="evenodd">
        <g id="BootsPharmacy---Mobile---Menu2" transform="translate(-15.000000, -327.000000)" fill="#004990">
            <g id="main-nav" transform="translate(0.000000, 140.000000)">
                <g id="My-account" transform="translate(0.000000, 162.000000)">
                    <g id="icon-/-settings-" transform="translate(15.000000, 25.000000)">
                        <path d="M14,17.5 C15.93025,17.5 17.5,15.929375 17.5,14 C17.5,12.070625 15.93025,10.5 14,10.5 C12.070625,10.5 10.5,12.070625 10.5,14 C10.5,15.929375 12.070625,17.5 14,17.5 L14,17.5 Z M14,12.25 C14.965125,12.25 15.75,13.0375 15.75,14 C15.75,14.9625 14.965125,15.75 14,15.75 C13.0353125,15.75 12.25,14.9625 12.25,14 C12.25,13.0375 13.0353125,12.25 14,12.25 L14,12.25 Z M1.75,12.25 L4.375,12.25 C4.7516875,12.25 5.0859375,12.009375 5.2058125,11.650625 L6.0808125,9.025625 C6.1849375,8.710625 6.103125,8.365 5.868625,8.133125 L3.8626875,6.125 L6.125,3.863125 L8.131375,5.866875 C8.3654375,6.103125 8.712375,6.18625 9.0269375,6.08125 L11.6519375,5.20625 C12.0089375,5.08375 12.25,4.75125 12.25,4.375 L12.25,1.75 L15.75,1.75 L15.75,4.375 C15.75,4.75125 15.9910625,5.08375 16.3485,5.20625 L18.9735,6.08125 C19.2885,6.18625 19.6345625,6.103125 19.868625,5.866875 L21.875,3.863125 L24.13775,6.125 L22.131375,8.133125 C21.8973125,8.365 21.8150625,8.710625 21.9200625,9.025625 L22.7950625,11.650625 C22.9140625,12.009375 23.2483125,12.25 23.625,12.25 L26.25,12.25 L26.25,15.75 L23.625,15.75 C23.2483125,15.75 22.9140625,15.990625 22.7950625,16.349375 L21.9200625,18.974375 C21.8150625,19.289375 21.8973125,19.635 22.131375,19.866875 L24.13775,21.875 L21.875,24.136875 L19.868625,22.133125 C19.6345625,21.896875 19.287625,21.81375 18.9735,21.91875 L16.3485,22.79375 C15.9910625,22.91625 15.75,23.24875 15.75,23.625 L15.75,26.25 L12.25,26.25 L12.25,23.625 C12.25,23.24875 12.0089375,22.91625 11.6519375,22.79375 L9.0269375,21.91875 C8.71325,21.81375 8.365875,21.896875 8.131375,22.133125 L6.125,24.136875 L3.8626875,21.875 L5.868625,19.866875 C6.103125,19.635 6.1849375,19.289375 6.0808125,18.974375 L5.2058125,16.349375 C5.0859375,15.990625 4.7516875,15.75 4.375,15.75 L1.75,15.75 L1.75,12.25 L1.75,12.25 Z M0.875,17.5 L3.7445625,17.5 L4.2494375,19.01375 L2.006375,21.258125 C1.6646875,21.599375 1.6646875,22.150625 2.006375,22.491875 L5.506375,25.991875 C5.8480625,26.333125 6.4028125,26.333125 6.743625,25.991875 L8.9866875,23.751875 L10.5,24.255 L10.5,27.125 C10.5,27.610625 10.8924375,28 11.375,28 L16.625,28 C17.1084375,28 17.5,27.610625 17.5,27.125 L17.5,24.255 L19.0141875,23.751875 L21.256375,25.991875 C21.5980625,26.333125 22.1528125,26.333125 22.493625,25.991875 L25.993625,22.491875 C26.3353125,22.150625 26.3353125,21.599375 25.993625,21.258125 L23.7514375,19.01375 L24.2554375,17.5 L27.125,17.5 C27.6084375,17.5 28,17.110625 28,16.625 L28,11.375 C28,10.89375 27.6084375,10.5 27.125,10.5 L24.2554375,10.5 L23.7514375,8.98625 L25.993625,6.741875 C26.3353125,6.400625 26.3353125,5.849375 25.993625,5.508125 L22.493625,2.008125 C22.1528125,1.666875 21.5980625,1.666875 21.256375,2.008125 L19.0141875,4.248125 L17.5,3.745 L17.5,0.875 C17.5,0.39375 17.1084375,0 16.625,0 L11.375,0 C10.8924375,0 10.5,0.39375 10.5,0.875 L10.5,3.745 L8.9866875,4.248125 L6.743625,2.008125 C6.4028125,1.666875 5.8480625,1.666875 5.506375,2.008125 L2.006375,5.508125 C1.6646875,5.849375 1.6646875,6.400625 2.006375,6.741875 L4.2494375,8.98625 L3.7445625,10.5 L0.875,10.5 C0.3924375,10.5 0,10.89375 0,11.375 L0,16.625 C0,17.110625 0.3924375,17.5 0.875,17.5 L0.875,17.5 Z" id="123"></path>
                    </g>
                </g>
            </g>
        </g>
    </g>
</svg>