
<?xml version="1.0" encoding="UTF-8"?>
<svg width="32px" height="32px" viewBox="0 0 32 32" version="1.1" xmlns="http://www.w3.org/2000/svg" xmlns:xlink="http://www.w3.org/1999/xlink">
    <!-- Generator: Sketch 51.1 (57501) - http://www.bohemiancoding.com/sketch -->
    <title>Shape</title>
    <desc>Created with Sketch.</desc>
    <defs></defs>
    <g id="Symbols" stroke="none" stroke-width="1" fill="none" fill-rule="evenodd">
        <g id="Nav-/-3-Menu-left" transform="translate(-329.000000, -19.000000)" fill="#FFFFFF" fill-rule="nonzero" stroke="#FFFFFF">
            <path d="M345,20 C336.708333,20 330,26.7083333 330,35 C330,39.6666667 332.166667,43.8333333 335.5,46.5833333 C335.5,46.5833333 335.5,46.5833333 335.5,46.625 C336.041667,47.0833333 336.625,47.4583333 337.208333,47.8333333 C337.208333,47.8333333 337.25,47.875 337.25,47.875 C337.416667,47.9583333 337.583333,48.0833333 337.75,48.1666667 C337.833333,48.2083333 337.916667,48.25 337.958333,48.2916667 C338.083333,48.3333333 338.166667,48.4166667 338.291667,48.4583333 C338.416667,48.5 338.5,48.5833333 338.625,48.625 C338.708333,48.6666667 338.791667,48.7083333 338.833333,48.7083333 C338.958333,48.7916667 339.125,48.8333333 339.25,48.875 C339.291667,48.875 339.333333,48.9166667 339.375,48.9166667 C340.291667,49.2916667 341.25,49.5833333 342.291667,49.75 C342.333333,49.75 342.375,49.75 342.458333,49.7916667 C342.625,49.8333333 342.75,49.8333333 342.916667,49.875 C343,49.875 343.083333,49.9166667 343.166667,49.9166667 C343.291667,49.9166667 343.416667,49.9583333 343.541667,49.9583333 C343.666667,49.9583333 343.791667,49.9583333 343.916667,50 C344,50 344.125,50 344.208333,50 C344.458333,50 344.666667,50 344.916667,50 C345.166667,50 345.375,50 345.625,50 C345.708333,50 345.833333,50 345.916667,50 C346.041667,50 346.166667,50 346.291667,49.9583333 C346.416667,49.9583333 346.541667,49.9166667 346.666667,49.9166667 C346.75,49.9166667 346.833333,49.875 346.916667,49.875 C347.083333,49.8333333 347.208333,49.8333333 347.375,49.7916667 C347.416667,49.7916667 347.458333,49.7916667 347.541667,49.75 C348.541667,49.5833333 349.5,49.2916667 350.458333,48.9166667 C350.5,48.9166667 350.541667,48.875 350.583333,48.875 C350.708333,48.8333333 350.875,48.75 351,48.7083333 C351.083333,48.6666667 351.166667,48.625 351.208333,48.625 C351.333333,48.5833333 351.416667,48.5 351.541667,48.4583333 C351.666667,48.4166667 351.791667,48.3333333 351.875,48.2916667 C351.958333,48.25 352.041667,48.2083333 352.083333,48.1666667 C352.25,48.0833333 352.416667,47.9583333 352.583333,47.875 C352.583333,47.875 352.625,47.8333333 352.625,47.8333333 C353.208333,47.4583333 353.791667,47.0833333 354.333333,46.625 C354.333333,46.625 354.333333,46.625 354.375,46.5833333 C357.708333,43.8333333 359.875,39.6666667 359.875,35 C360,26.75 353.291667,20 345,20 Z M351.791667,47.4583333 C351.75,47.5 351.666667,47.5416667 351.625,47.5416667 C351.5,47.5833333 351.375,47.6666667 351.291667,47.7083333 C351.166667,47.75 351.083333,47.8333333 350.958333,47.875 C350.875,47.9166667 350.833333,47.9166667 350.75,47.9583333 C350.625,48 350.458333,48.0833333 350.333333,48.125 C350.291667,48.125 350.25,48.1666667 350.208333,48.1666667 C350.041667,48.25 349.875,48.2916667 349.708333,48.3333333 C349.708333,48.3333333 349.708333,48.3333333 349.666667,48.3333333 C348.958333,48.5833333 348.208333,48.75 347.5,48.9166667 C347.458333,48.9166667 347.416667,48.9166667 347.375,48.9583333 C347.25,49 347.083333,49 346.958333,49.0416667 C346.875,49.0416667 346.791667,49.0833333 346.708333,49.0833333 C346.583333,49.0833333 346.458333,49.125 346.333333,49.125 C346.208333,49.125 346.083333,49.125 345.958333,49.1666667 C345.875,49.1666667 345.791667,49.1666667 345.666667,49.1666667 C345.458333,49.1666667 345.208333,49.1666667 345,49.1666667 C344.791667,49.1666667 344.541667,49.1666667 344.333333,49.1666667 C344.25,49.1666667 344.166667,49.1666667 344.041667,49.1666667 C343.916667,49.1666667 343.791667,49.1666667 343.666667,49.125 C343.541667,49.125 343.416667,49.0833333 343.291667,49.0833333 C343.208333,49.0833333 343.125,49.0833333 343.041667,49.0416667 C342.916667,49.0416667 342.75,49 342.625,48.9583333 C342.583333,48.9583333 342.541667,48.9583333 342.5,48.9166667 C341.75,48.7916667 341.041667,48.5833333 340.291667,48.3333333 C340.291667,48.3333333 340.291667,48.3333333 340.291667,48.3333333 C340.125,48.2916667 339.958333,48.2083333 339.791667,48.1666667 C339.75,48.1666667 339.708333,48.125 339.666667,48.125 C339.541667,48.0833333 339.375,48 339.25,47.9583333 C339.166667,47.9166667 339.125,47.9166667 339.041667,47.875 C338.916667,47.8333333 338.833333,47.75 338.708333,47.7083333 C338.583333,47.6666667 338.458333,47.5833333 338.375,47.5416667 C338.291667,47.5 338.25,47.4583333 338.166667,47.4583333 C337.458333,47.0833333 336.791667,46.625 336.125,46.125 C336.208333,41.3333333 340.125,37.4583333 344.916667,37.4583333 C349.708333,37.4583333 353.625,41.3333333 353.708333,46.125 C353.166667,46.5833333 352.5,47.0416667 351.791667,47.4583333 Z M354.625,45.4166667 C354.291667,41.2916667 351.333333,37.9166667 347.458333,36.9166667 C349.541667,35.9583333 351.041667,33.875 351.041667,31.4166667 C351.041667,28.0833333 348.333333,25.4166667 345.041667,25.4166667 C341.75,25.4166667 339.041667,28.125 339.041667,31.4166667 C339.041667,33.875 340.5,35.9583333 342.625,36.9166667 C338.75,37.9166667 335.791667,41.3333333 335.458333,45.4166667 C332.666667,42.8333333 330.875,39.125 330.875,35 C330.875,27.2083333 337.25,20.8333333 345.041667,20.8333333 C352.833333,20.8333333 359.208333,27.2083333 359.208333,35 C359.166667,39.125 357.416667,42.8333333 354.625,45.4166667 Z M345,36.5833333 C342.125,36.5833333 339.833333,34.25 339.833333,31.4166667 C339.833333,28.5416667 342.166667,26.25 345,26.25 C347.833333,26.25 350.166667,28.5833333 350.166667,31.4166667 C350.208333,34.25 347.875,36.5833333 345,36.5833333 Z" id="Shape"></path>
        </g>
    </g>
</svg>